<?xml version="1.0" encoding="UTF-8" standalone="yes"?>
<svg version="1.2" width="192" height="192" viewBox="0 0 192 192" baseProfile="tiny-ps" xmlns="http://www.w3.org/2000/svg">
  <title>bimi-svg-tiny-12-ps</title>
  <defs id="defs1"/>
  <desc>B3K.me, a site by stgiga, this icon is a spirograph with linen, converted to an X-Face: avatar header for e-mail.</desc>
  <g id="g1">
    <path d="m 4,190 v -2 h 2 2 v -2 -2 h 2 2 v 2 2 H 10 8 v 2 2 H 6 4 Z m 12,0 v -2 h 2 2 v 2 2 h -2 -2 z m 44,0 v -2 h 2 2 v 2 2 h -2 -2 z m 24,0 v -2 h 2 2 v 2 2 h -2 -2 z m 28,0 v -2 h 2 2 v 2 2 h -2 -2 z m 12,0 v -2 h 2 2 v 2 2 h -2 -2 z m 16,0 v -2 h 2 2 v 2 2 h -2 -2 z m 8,0 v -2 h 2 2 v 2 2 h -2 -2 z M 24,186 v -2 h 2 2 v 2 2 h -2 -2 z m 12,0 v -2 h 2 2 v 2 2 h -2 -2 z m 12,0 v -2 h 2 2 v 2 2 h -2 -2 z m 20,0 v -2 h 2 2 v 2 2 h -2 -2 z m 8,0 v -2 h 2 2 v 2 2 h -2 -2 z m 16,0 v -2 h -4 -4 v -2 -2 h -4 -4 v -2 -2 h -2 -2 v -4 -4 h -2 -2 v -2 -2 h 2 2 v -2 -2 h -8 -8 v 2 2 h -6 -6 v -2 -2 h -2 -2 v 2 2 h -2 -2 v 2 2 h -2 -2 v 2 2 h -2 -2 v -2 -2 h 2 2 v -2 -2 h 2 2 v -2 -2 h -2 -2 v -2 -2 h 2 2 v 2 2 h 2 2 v -10 -10 h -2 -2 v -2 -2 h 2 2 v -2 -2 h -6 -6 v 2 2 h -2 -2 v -2 -2 h -2 -2 v 2 2 h -2 -2 v -2 -2 h -2 -2 v -2 -2 h 2 2 v -2 -2 h -2 -2 v -4 -4 h 2 2 v -2 -2 h 2 2 v -4 -4 h -2 -2 v -2 -2 H 14 12 V 98 96 H 8 4 v -2 -2 h 2 2 v -6 -6 h 4 4 v -2 -2 h 4 4 v -2 -2 h 2 2 v -2 -2 h 6 6 v -2 -2 h 2 2 v -2 -2 h -2 -2 v -2 -2 h 2 2 v 2 2 h 2 2 v -4 -4 h -2 -2 v -2 -2 h -2 -2 v 2 2 h -2 -2 v 2 2 h -4 -4 v 2 2 h 2 2 v 2 2 h -2 -2 v -2 -2 h -2 -2 v 4 4 h -2 -2 v 2 2 h -2 -2 v -2 -2 h 2 2 v -4 -4 h -2 -2 v -4 -4 h 2 2 v -4 -4 h 2 2 v -2 -2 h 2 2 v 2 2 H 38 48 V 30 16 h 4 4 v 2 2 h 4 4 v 2 2 h 4 4 v 2 2 h 2 2 v -2 -2 h 2 2 v -4 -4 h 2 2 V 14 12 H 82 80 V 10 8 h 4 4 V 6 4 h 2 2 V 2 0 h 2 2 v 2 2 h -2 -2 v 2 2 h 6 6 v 2 2 h 2 2 v 4 4 h 2 2 v -2 -2 h 2 2 v 2 2 h 2 2 v -2 -2 h 4 4 v -2 -2 h 2 2 V 10 8 h 2 2 v 2 2 h -2 -2 v 2 2 h 4 4 v 6 6 h 2 2 v 4 4 h 2 2 v 2 2 h -4 -4 v 2 2 h 2 2 v 2 2 h -2 -2 v 2 2 h 2 2 v 2 2 h 2 2 v 4 4 h 2 2 v -2 -2 h 2 2 v -6 -6 h -4 -4 v -2 -2 h 4 4 v 2 2 h 2 2 v -4 -4 h -4 -4 v -4 -4 h 2 2 v 2 2 h 6 6 v 2 2 h -2 -2 v 2 2 h 4 4 v 2 2 h -2 -2 v 6 6 h -2 -2 v 2 2 h 2 2 v 2 2 h 2 2 v -2 -2 h 2 2 v 2 2 h 2 2 v 2 2 h 2 2 v 2 2 h -2 -2 v 2 2 h 2 2 v 4 4 h -2 -2 v -4 -4 h -2 -2 v 4 4 h -2 -2 v 2 2 h 2 2 v 2 2 h -2 -2 v -2 -2 h -2 -2 v 6 6 h 2 2 v 2 2 h -2 -2 v 4 4 h 2 2 v -2 -2 h 2 2 v -2 -2 h 2 2 v 2 2 h -2 -2 v 2 2 h 2 2 v 2 2 h 2 2 v 2 2 h -4 -4 v 4 4 h 2 2 v 2 2 h -2 -2 v -2 -2 h -4 -4 v 2 2 h -4 -4 v 8 8 h 2 2 v 2 2 h -2 -2 v 2 2 h -2 -2 v 2 2 h -2 -2 v -4 -4 h -4 -4 v 2 2 h 2 2 v 2 2 h -2 -2 v -2 -2 h -2 -2 v -2 -2 h -2 -2 v 4 4 h -2 -2 v 4 4 h -2 -2 v 4 4 h -6 -6 v 2 2 h -2 -2 v -4 -4 h -2 -2 v -2 -2 h -2 -2 v -2 -2 h -2 -2 v 2 2 h -2 -2 v 2 2 h -2 -2 v 4 4 h 2 2 v 2 2 h -2 -2 z m -4,-8 v -2 h 2 2 v -2 -2 h 2 2 v -2 -2 h -2 -2 v -6 -6 h 6 6 v 2 2 h 2 2 v 2 2 h -2 -2 v 2 2 h 2 2 v 2 2 h 2 2 v 2 2 h 2 2 v -2 -2 h 2 2 v 2 2 h 2 2 v -2 -2 h 2 2 v -4 -4 h 2 2 v -4 -4 h 2 2 v -2 -2 h 10 10 v 2 2 h 2 2 v -2 -2 h -2 -2 v -2 -2 h -2 -2 v -2 -2 h 2 2 v -4 -4 h -4 -4 v 2 2 h -2 -2 v -2 -2 h -2 -2 v 4 4 h -2 -2 v -2 -2 h -4 -4 v 2 2 h -4 -4 v 2 2 h 2 2 v 2 2 h 2 2 v -4 -4 h 4 4 v 4 4 h -2 -2 v 2 2 h -2 -2 v 4 4 h -2 -2 v 4 4 h -2 -2 v -6 -6 h 2 2 v -2 -2 h -2 -2 v -2 -2 h -2 -2 v 2 2 h -2 -2 v -2 -2 h -2 -2 v 2 2 h -2 -2 v -2 -2 h -2 -2 v -2 -2 h -4 -4 v 4 4 h -4 -4 v -2 -2 h -6 -6 v 4 4 h 2 2 v 2 2 h -2 -2 v 2 2 h 2 2 v -2 -2 h 2 2 v 4 4 h -2 -2 v 2 2 h 2 2 v -2 -2 h 4 4 v 2 2 h -2 -2 v 2 2 h 2 2 z m 0,-8 v -2 h -2 -2 v -2 -2 h 2 2 v 2 2 h 2 2 v 2 2 h -2 -2 z m 24,0 v -2 h -2 -2 v -2 -2 h 2 2 v 2 2 h 2 2 v 2 2 h -2 -2 z M 76,158 v -2 h 2 2 v 2 2 h -2 -2 z m 32,0 v -2 h 2 2 v 2 2 h -2 -2 z m 36,-12 v -2 h 2 2 v -2 -2 h 2 2 v 2 2 h -2 -2 v 2 2 h -2 -2 z m -88,10 v -4 h 2 2 v 2 2 h 2 2 v -2 -2 h -2 -2 v -6 -6 h -2 -2 v -2 -2 h -2 -2 v 2 2 h -2 -2 v -4 -4 h 4 4 v -4 -4 h 2 2 v 2 2 h 2 2 v 2 2 h 2 2 v 4 4 h 2 2 v 2 2 h -4 -4 v 2 2 h 6 6 v -4 -4 h 4 4 v -2 -2 h 2 2 v 4 4 h 8 8 v -2 -2 h 2 2 v 4 4 h 2 2 v -6 -6 h 2 2 v 2 2 h 2 2 v -2 -2 h 2 2 v -2 -2 h 2 2 v -2 -2 h 4 4 v -4 -4 h 2 2 v 4 4 h 2 2 v 2 2 h 2 2 v -2 -2 h 2 2 v -2 -2 h 2 2 v 4 4 h 6 6 v -2 -2 h 2 2 v -2 -2 h -2 -2 v -4 -4 h -2 -2 v -4 -4 h 2 2 v -2 -2 h -2 -2 v 2 2 h -4 -4 v -4 -4 h -2 -2 v -2 -2 h 2 2 v -2 -2 h -2 -2 v 2 2 h -2 -2 v 2 2 h -2 -2 V 88 76 h 2 2 v 2 2 h 2 2 v -2 -2 h -2 -2 v -2 -2 h 4 4 v 2 2 h 2 2 v 2 2 h -2 -2 v 4 4 h 2 2 v 4 4 h 2 2 v -4 -4 h 4 4 v -8 -8 h 2 2 v 2 2 h 2 2 v -2 -2 h -2 -2 v -2 -2 h -2 -2 v 2 2 h -2 -2 v -2 -2 h -2 -2 v 2 2 h -4 -4 v -2 -2 h 2 2 v -2 -2 h -2 -2 v 2 2 h -4 -4 v -2 -2 h -2 -2 v 6 6 h -2 -2 v -2 -2 h -2 -2 v -4 -4 h 2 2 v -2 -2 h -2 -2 v 2 2 h -2 -2 v -2 -2 h -2 -2 v -2 -2 h -2 -2 v -2 -2 h -6 -6 V 42 32 h -2 -2 v 2 2 h -2 -2 v -2 -2 h -2 -2 v -2 -2 h 2 2 v -2 -2 h 2 2 v -2 -2 h -2 -2 v -4 -4 h -2 -2 v 4 4 H 98 96 V 18 16 H 94 92 V 12 8 h -2 -2 v 4 4 h -2 -2 v 4 4 h -2 -2 v 2 2 h 2 2 v 4 4 h 2 2 v -4 -4 h 2 2 v 4 4 h 2 2 v -2 -2 h 2 2 v 2 2 h 2 2 v 2 2 h -2 -2 v 2 2 h 2 2 v 2 2 h -6 -6 v -2 -2 h 2 2 v -2 -2 h -2 -2 v 2 2 h -6 -6 v -4 -4 h -4 -4 v 2 2 h 2 2 v 2 2 h 2 2 v 4 4 h -4 -4 v 2 2 h -4 -4 v -2 -2 h -4 -4 v -2 -2 h -2 -2 v 6 6 h 2 2 v -2 -2 h 4 4 v 4 4 h -4 -4 v 4 4 h -2 -2 v -4 -4 h -2 -2 v 4 4 h 2 2 v 2 2 h -2 -2 v 16 16 h 2 2 v 10 10 h -2 -2 v -2 -2 h -4 -4 v -2 -2 h -2 -2 v -2 -2 h 2 2 v -2 -2 h 2 2 v 2 2 h 2 2 v -2 -2 h -2 -2 v -2 -2 h -2 -2 v -6 -6 h -2 -2 v 6 6 h -2 -2 v 2 2 h -2 -2 v -2 -2 h -2 -2 v 2 2 h -2 -2 v 2 2 h -2 -2 v 4 4 h 2 2 v -4 -4 h 2 2 v 4 4 h 2 2 v 2 2 h -2 -2 v 2 2 h 2 2 v -2 -2 h 8 8 v 12 12 h 4 4 v 2 2 h -4 -4 v 2 2 h 6 6 z m -4,-6 v -2 h 2 2 v 2 2 h -2 -2 z m 20,-12 v -2 h 2 2 v 2 2 h -2 -2 z m 24,0 v -2 h 2 2 v 2 2 h -2 -2 z m 8,-4 v -2 h 2 2 v 2 2 h -2 -2 z m -36,-4 v -2 h 2 2 v 2 2 h -2 -2 z m 8,0 v -2 h 2 2 v 2 2 h -2 -2 z m 8,0 v -2 h 2 2 v 2 2 h -2 -2 z m 16,-4 v -2 h 2 2 v 2 2 h -2 -2 z m 8,0 v -2 h 2 2 v 2 2 h -2 -2 z m 8,0 v -2 h 2 2 v 2 2 h -2 -2 z m 8,0 v -2 h 2 2 v 2 2 h -2 -2 z m 20,0 v -2 h 2 2 v -2 -2 h -4 -4 v -2 -2 h -2 -2 v -2 -2 h -2 -2 v -2 -2 h 2 2 v 2 2 h 4 4 v -2 -2 h -2 -2 v -2 -2 h 4 4 v -2 -2 h 2 2 v 4 4 h 2 2 v 2 2 h -2 -2 v 2 2 h 2 2 v 2 2 h -2 -2 v 2 2 h -2 -2 v 2 2 h -2 -2 z m 16,0 v -2 h 4 4 v 2 2 h -4 -4 z m -68,-4 v -2 h 2 2 v 2 2 h -2 -2 z m -32,-4 v -2 h 2 2 v 2 2 h -2 -2 z m 20,0 v -2 h 2 2 v 2 2 h -2 -2 z m 24,0 v -2 h 2 2 v 2 2 h -2 -2 z m 12,0 v -2 h 2 2 v 2 2 h -2 -2 z m 12,0 v -2 h 2 2 v 2 2 h -2 -2 z m 32,0 v -2 h 2 2 v 2 2 h -2 -2 z M 24,114 v -2 h 2 2 v 2 2 h -2 -2 z m 8,0 v -2 h 2 2 v -2 -2 h 2 2 v 2 2 h -2 -2 v 2 2 h -2 -2 z m 40,0 v -2 h 2 2 v 2 2 h -2 -2 z m 16,-4 v -2 h 2 2 v 2 2 h -2 -2 z m 8,0 v -2 h 2 2 v 2 2 h -2 -2 z m 16,0 v -2 h 2 2 v 2 2 h -2 -2 z m -44,-4 v -2 h 2 2 v 2 2 h -2 -2 z m 12,0 v -2 h 2 2 v 2 2 h -2 -2 z m 24,0 v -2 h 2 2 v 2 2 h -2 -2 z m 16,0 v -2 h 2 2 v 2 2 h -2 -2 z m -60,-4 v -2 h 2 2 v 2 2 h -2 -2 z m 28,0 v -2 h 2 2 v 2 2 h -2 -2 z m 8,0 v -2 h 2 2 v 2 2 h -2 -2 z m 16,0 v -2 h 2 2 v 2 2 h -2 -2 z m 20,0 v -2 h 2 2 v 2 2 h -2 -2 z M 72,98 v -2 h 2 2 v 2 2 h -2 -2 z m 8,-4 v -2 h 2 2 v 2 2 h -2 -2 z m 16,0 v -2 h 2 2 v 2 2 h -2 -2 z m 16,0 v -2 h 4 4 v 2 2 h -4 -4 z m 12,0 v -2 h 2 2 v 2 2 h -2 -2 z m 12,0 v -2 h -2 -2 v -2 -2 h 2 2 v 2 2 h 2 2 v 2 2 h -2 -2 z M 72,90 v -2 h 2 2 v 2 2 h -2 -2 z m 16,0 v -2 h 2 2 v 2 2 h -2 -2 z m 16,0 v -2 h 2 2 v 2 2 h -2 -2 z M 60,86 v -2 h -2 -2 v -2 -2 h 2 2 v 2 2 h 2 2 v 2 2 h -2 -2 z m 36,0 v -2 h -2 -2 v -2 -2 h 2 2 v 2 2 h 2 2 v 2 2 h -2 -2 z m 20,0 v -2 h -2 -2 v -2 -2 h 2 2 v 2 2 h 2 2 v 2 2 h -2 -2 z m 8,0 v -2 h 2 2 v 2 2 h -2 -2 z M 80,82 v -2 h 2 2 v -2 -2 h 2 2 v 2 2 h -2 -2 v 2 2 h -2 -2 z m 24,0 v -2 h 2 2 v 2 2 h -2 -2 z m 28,0 v -2 h 2 2 v 2 2 h -2 -2 z M 72,78 v -2 h 2 2 v 2 2 h -2 -2 z m 52,0 v -2 h 2 2 v 2 2 h -2 -2 z M 60,74 v -2 h 2 2 v 2 2 h -2 -2 z m 32,0 v -2 h 2 2 v 2 2 h -2 -2 z m 16,0 v -2 h 2 2 v -2 -2 h 2 2 v 2 2 h -2 -2 v 2 2 h -2 -2 z m 24,0 v -2 h 2 2 v 2 2 h -2 -2 z m 32,0 v -2 h 2 2 v 2 2 h -2 -2 z M 72,70 v -2 h 2 2 v 2 2 h -2 -2 z m 12,0 v -2 h 2 2 v 2 2 h -2 -2 z m 40,0 v -2 h 2 2 v 2 2 h -2 -2 z M 96,66 v -2 h 2 2 v 2 2 H 98 96 Z M 80,62 v -2 h 2 2 v 2 2 h -2 -2 z m 8,0 v -2 h 2 2 v 2 2 h -2 -2 z m 24,0 v -2 h 2 2 v 2 2 h -2 -2 z M 96,58 v -2 h 2 2 v 2 2 h -2 -2 z m -8,-4 v -2 h -2 -2 v -2 -2 h 2 2 v 2 2 h 2 2 v 2 2 h -2 -2 z m 16,-12 v -2 h 2 2 v 2 2 h -2 -2 z M 84,26 v -2 h 2 2 v -4 -4 h 2 2 v 4 4 h -2 -2 v 2 2 h -2 -2 z m 16,-4 v -2 h 2 2 v 2 2 h -2 -2 z M 20,130 v -2 h -2 -2 v 2 2 h 2 2 z m 156,-12 v -2 h -2 -2 v 2 2 h 2 2 z M 24,100 v -4 h 2 2 v 2 2 h 2 2 v -4 -4 h 2 2 v -2 -2 h -2 -2 v -2 -2 h 2 2 v -2 -2 h 4 4 v -4 -4 h -4 -4 v 4 4 h -2 -2 v 2 2 h -2 -2 v -2 -2 h -6 -6 v 2 2 h -2 -2 v 2 2 h 2 2 v 2 2 h -2 -2 v 2 2 h 2 2 v 2 2 h 2 2 v 2 2 h 2 2 z m -8,-6 v -2 h 4 4 v 2 2 h -4 -4 z m 12,-4 v -2 h 2 2 v 2 2 H 30 28 Z M 16,86 v -2 h 4 4 v 2 2 h -4 -4 z m 28,4 v -2 h -2 -2 v 2 2 h 2 2 z M 24,58 v -2 h -2 -2 v 2 2 h 2 2 z m 140,-4 v -6 h -2 -2 v 6 6 h 2 2 z m -28,-6 v -8 h -2 -2 v -6 -6 h 2 2 v 4 4 h 2 2 v -4 -4 h -2 -2 v -2 -2 h -4 -4 v -2 -2 h 2 2 v -2 -2 h -2 -2 v 2 2 h -4 -4 v 6 6 h -2 -2 v 2 2 h 2 2 v 2 2 h 6 6 v 4 4 h -2 -2 v 2 2 h 2 2 v 2 2 h 2 2 z M 124,26 v -2 h 2 2 v 2 2 h -2 -2 z M 36,50 v -2 h -6 -6 v 2 2 h 6 6 z M 68,38 v -6 h 2 2 v -2 -2 h -4 -4 v 2 2 h -2 -2 v -4 -4 h -2 -2 v -2 -2 h -2 -2 v 2 2 h 2 2 v 2 2 h -2 -2 v 4 4 h 2 2 v 2 2 h -2 -2 v 2 2 h 8 8 z m 48,-14 v -4 h -2 -2 v 4 4 h 2 2 z m -12,162 v -2 h 2 2 v 2 2 h -2 -2 z m 28,0 v -2 h 2 2 v 2 2 h -2 -2 z m 24,0 v -2 h 2 2 v 2 2 h -2 -2 z m 16,0 v -2 h 2 2 v 2 2 h -2 -2 z m 12,0 v -2 h 2 2 v 2 2 h -2 -2 z M 16,182 v -2 h 2 2 v 2 2 h -2 -2 z m 40,0 v -2 h 2 2 v 2 2 H 58 56 Z M 4,178 v -2 h 2 2 v 2 2 H 6 4 Z m 24,0 v -2 h 2 2 v 2 2 h -2 -2 z m 72,0 v -2 h 2 2 v 2 2 h -2 -2 z m 32,0 v -2 h 2 2 v 2 2 h -2 -2 z m 8,0 v -2 h 2 2 v 2 2 h -2 -2 z m 8,0 v -2 h 2 2 v -2 -2 h 2 2 v -2 -2 h 2 2 v 2 2 h -2 -2 v 2 2 h -2 -2 v 2 2 h -2 -2 z m 12,0 v -2 h 2 2 v 2 2 h -2 -2 z m 12,0 v -2 h 2 2 v 2 2 h -2 -2 z M 20,174 v -2 h 2 2 v 2 2 h -2 -2 z m 24,0 v -2 h -2 -2 v -2 -2 h 2 2 v 2 2 h 2 2 v 2 2 h -2 -2 z m 20,0 v -2 h 2 2 v 2 2 h -2 -2 z m -8,-4 v -2 h 2 2 v 2 2 h -2 -2 z m 84,0 v -2 h 2 2 v 2 2 h -2 -2 z m 32,0 v -2 h 2 2 v 2 2 h -2 -2 z m 12,0 v -2 h 2 2 v 2 2 h -2 -2 z M 8,166 v -2 h 2 2 v 2 2 H 10 8 Z m 12,-4 v -2 h 2 2 v 2 2 h -2 -2 z m 148,0 v -2 h 2 2 v 2 2 h -2 -2 z M 4,158 v -2 h 2 2 v 2 2 H 6 4 Z m 176,0 v -2 h 2 2 v 2 2 h -2 -2 z M 4,150 v -2 h 2 2 v 2 2 H 6 4 Z m 8,0 v -2 h 2 2 v 2 2 h -2 -2 z m 16,0 v -2 h 2 2 v 2 2 h -2 -2 z m 148,0 v -2 h 2 2 v 2 2 h -2 -2 z m -8,-4 v -2 h 2 2 v 2 2 h -2 -2 z m 20,0 v -2 h 2 2 v 2 2 h -2 -2 z M 8,142 v -2 h 2 2 v 2 2 H 10 8 Z m 12,0 v -2 h 2 2 v 2 2 h -2 -2 z m 156,0 v -2 h 2 2 v 2 2 h -2 -2 z M 4,130 v -2 h 2 2 v 2 2 H 6 4 Z m 0,-8 v -2 h 2 2 v 2 2 H 6 4 Z m 180,-8 v -2 h 2 2 v 2 2 h -2 -2 z M 4,110 v -2 h 2 2 v 2 2 H 6 4 Z m 0,-8 v -2 h 2 2 v 2 2 H 6 4 Z m 176,0 v -2 h 2 2 v 2 2 h -2 -2 z m 8,-4 v -2 h 2 2 v 2 2 h -2 -2 z m -8,-4 v -2 h 2 2 v 2 2 h -2 -2 z m 8,-4 v -2 h 2 2 v 2 2 h -2 -2 z M 0,86 v -2 h 2 2 v 2 2 H 2 0 Z m 188,-4 v -2 h 2 2 v 2 2 h -2 -2 z M 0,74 v -2 h 2 2 v -2 -2 h 2 2 v 2 2 H 6 4 v 2 2 H 2 0 Z m 188,0 v -2 h 2 2 v 2 2 h -2 -2 z M 8,62 V 60 H 6 4 v -2 -2 h 2 2 v 2 2 h 2 2 v 2 2 H 10 8 Z m 172,0 v -2 h 2 2 v 2 2 h -2 -2 z m 8,-4 v -2 h 2 2 v 2 2 h -2 -2 z m -8,-4 v -2 h 2 2 v 2 2 h -2 -2 z M 8,50 v -2 h 2 2 v 2 2 H 10 8 Z m 0,-8 v -2 h 2 2 v 2 2 H 10 8 Z m 172,0 v -2 h 2 2 v 2 2 h -2 -2 z M 36,38 v -2 h 2 2 v 2 2 H 38 36 Z M 24,34 v -2 h 2 2 v 2 2 h -2 -2 z m 156,0 v -2 h 2 2 v 2 2 h -2 -2 z M 12,30 V 28 H 10 8 v -2 -2 h 2 2 v 2 2 h 2 2 v 2 2 h -2 -2 z m 20,0 v -2 h 2 2 v 2 2 h -2 -2 z m 132,0 v -2 h 2 2 v 2 2 h -2 -2 z M 24,26 v -2 h 2 2 v 2 2 h -2 -2 z m 16,0 v -2 h 2 2 v 2 2 h -2 -2 z m 132,0 v -2 h 2 2 v 2 2 h -2 -2 z m 8,0 v -2 h 2 2 v 2 2 h -2 -2 z M 32,22 v -2 h 2 2 v 2 2 h -2 -2 z m 116,0 v -2 h 2 2 v 2 2 h -2 -2 z m 16,0 v -2 h 2 2 v 2 2 h -2 -2 z m -8,-4 v -2 h 2 2 v 2 2 h -2 -2 z m 16,0 v -2 h 2 2 v 2 2 h -2 -2 z M 12,14 v -2 h 2 2 v 2 2 h -2 -2 z m 12,0 v -2 h 2 2 v 2 2 h -2 -2 z m 8,0 v -2 h 2 2 v 2 2 h -2 -2 z m 8,0 v -2 h 2 2 v 2 2 h -2 -2 z m 28,0 v -2 h 2 2 v 2 2 h -2 -2 z m 116,0 v -2 h 2 2 v 2 2 h -2 -2 z M 4,10 V 8 h 2 2 v 2 2 H 6 4 Z m 144,0 V 8 h 2 2 V 6 4 h 2 2 v 2 2 h -2 -2 v 2 2 h -2 -2 z m 24,0 V 8 h 2 2 v 2 2 h -2 -2 z M 12,6 V 4 h 2 2 V 6 8 H 14 12 Z M 24,6 V 4 h 2 2 v 2 2 h -2 -2 z m 8,0 V 4 h 2 2 V 6 8 H 34 32 Z M 44,6 V 4 h 2 2 V 6 8 H 46 44 Z M 56,6 V 4 h 2 2 V 6 8 H 58 56 Z M 72,6 V 4 h 2 2 v 2 2 h -2 -2 z m 40,0 V 4 h 2 2 v 2 2 h -2 -2 z m 8,0 V 4 h 2 2 v 2 2 h -2 -2 z m 20,0 V 4 h 2 2 v 2 2 h -2 -2 z m 24,0 V 4 h 2 2 v 2 2 h -2 -2 z M 176,2 V 0 h 2 2 v 2 2 h -2 -2 z" id="path1" fill="#000000"/>
  </g>
</svg>